<svg xmlns="http://www.w3.org/2000/svg"
 xmlns:xlink="http://www.w3.org/1999/xlink"
 width="11px" height="17px"  viewBox="0 0 11 17">
<path fill-rule="evenodd"  fill="#ffffff"
 d="M7.0931396,15.999512 C7.0931396,15.999512 7.0931396,9.699707 7.0931396,9.699707 C7.0931396,9.699707 9.133301,9.699707 9.133301,9.699707 C9.133301,9.699707 9.466553,6.899414 9.466553,6.899414 C9.466553,6.899414 7.0931396,6.899414 7.0931396,6.899414 C7.0931396,6.899414 7.0931396,5.536133 7.0931396,5.536133 C7.0931396,4.8149414 7.112793,4.0996094 8.1875,4.0996094 C8.1875,4.0996094 9.275879,4.0996094 9.275879,4.0996094 C9.275879,4.0996094 9.275879,2.0976562 9.275879,2.0976562 C9.275879,2.0673828 8.340942,1.9995117 7.3950195,1.9995117 C5.4195557,1.9995117 4.1827393,3.159668 4.1827393,5.289551 C4.1827393,5.289551 4.1827393,6.899414 4.1827393,6.899414 C4.1827393,6.899414 1.9998779,6.899414 1.9998779,6.899414 C1.9998779,6.899414 1.9998779,9.699707 1.9998779,9.699707 C1.9998779,9.699707 4.1827393,9.699707 4.1827393,9.699707 C4.1827393,9.699707 4.1827393,15.999512 4.1827393,15.999512 C4.1827393,15.999512 7.0931396,15.999512 7.0931396,15.999512 Z"/>
</svg>