<svg xmlns="http://www.w3.org/2000/svg"
 xmlns:xlink="http://www.w3.org/1999/xlink"
 width="15px" height="16px"  viewBox="0 0 15 16">
<path fill-rule="evenodd"  fill="#dbdbdb"
 d="M13.392822,7.301758 C13.392822,7.301758 7.626709,7.301758 7.626709,7.301758 C7.626709,7.901367 7.626709,9.101074 7.622925,9.700684 C7.622925,9.700684 10.964355,9.700684 10.964355,9.700684 C10.836304,10.300293 10.382324,11.139648 9.740845,11.5625 C9.740234,11.562012 9.739624,11.566406 9.738403,11.56543 C8.88562,12.128418 4.578125,10.878418 4.1573486,9.671875 C4.15979,9.669922 4.161621,9.65332 4.163452,9.651855 C3.9000244,8.90332 3.9000244,7.901367 4.163452,7.301758 C4.163452,7.301758 4.162842,7.301758 4.162842,7.301758 C4.5021973,6.199707 9.126953,4.9375 10.002441,5.7563477 C10.1188965,5.642578 11.613647,4.1831055 11.72583,4.064453 C8.734985,1.3554688 3.9459229,2.3085938 2.1540527,5.8061523 C2.1540527,5.8061523 2.1533203,5.8061523 2.1533203,5.8061523 C2.1533203,5.8061523 2.1540527,5.8061523 2.1502686,5.8129883 C2.1502686,5.8129883 2.1502686,5.8129883 2.1502686,5.8129883 C1.263794,7.53125 1.3005371,9.555176 2.156372,11.191406 C2.1540527,11.193359 2.1520996,11.194336 2.1502686,11.196289 C2.9259033,12.701172 4.3374023,13.855469 6.038086,14.294922 C7.8447266,14.768555 10.144043,14.444824 11.684204,13.052246 C11.684692,13.052734 11.685425,13.053223 11.686035,13.053711 C12.990845,11.878418 13.803223,9.875977 13.392822,7.301758 C13.392822,7.301758 13.392822,7.301758 13.392822,7.301758 Z"/>
</svg>