<svg xmlns="http://www.w3.org/2000/svg"
 xmlns:xlink="http://www.w3.org/1999/xlink"
 width="16px" height="14px"  viewBox="0 0 16 14">
<path fill-rule="evenodd"  fill="#dbdbdb"
 d="M6.088379,12.999512 C10.9938965,12.999512 13.677124,4.8569336 13.669312,4.7373047 C14.191284,4.345215 14.641724,3.8574219 14.999878,3.2998047 C14.513672,3.5249023 13.996948,3.6723633 13.468506,3.7373047 C14.024902,3.3901367 14.441528,2.8447266 14.641113,2.2006836 C14.1171875,2.524414 13.544556,2.7524414 12.947144,2.875 C11.937134,1.7568359 8.1866455,4.4438477 8.401733,5.4086914 C6.2574463,5.2958984 4.2592773,4.241211 2.904663,2.506836 C2.1968994,3.775879 2.558838,5.398926 3.730835,6.213867 C3.3063965,6.201172 2.8909912,6.0820312 2.5198975,5.866699 C2.5198975,5.866699 2.5198975,5.9018555 2.5198975,5.9018555 C2.5205078,7.224121 3.4155273,8.362305 4.659668,8.624512 C4.26709,8.73584 3.8549805,8.752441 3.4559326,8.671875 C3.8049316,9.803223 4.8065186,10.578613 5.9473877,10.600586 C5.0028076,11.373535 2.2111816,11.778809 1.9998779,11.752441 C3.2199707,12.566895 4.638916,12.999512 6.088379,12.997559 C6.088379,12.997559 6.088379,12.999512 6.088379,12.999512 Z"/>
</svg>