<svg height="512pt" viewBox="0 0 512 512" width="512pt" xmlns="http://www.w3.org/2000/svg"><path d="m437.019531 74.980469c-48.351562-48.351563-112.640625-74.980469-181.019531-74.980469s-132.667969 26.628906-181.019531 74.980469c-48.351563 48.351562-74.980469 112.640625-74.980469 181.019531s26.628906 132.667969 74.980469 181.019531c48.351562 48.351563 112.640625 74.980469 181.019531 74.980469s132.667969-26.628906 181.019531-74.980469c48.351563-48.351562 74.980469-112.640625 74.980469-181.019531s-26.628906-132.667969-74.980469-181.019531zm-15.722656 200.363281c-3.566406 30.800781-29.6875 54.023438-60.761719 54.023438-20.246094 0-38.214844-9.894532-49.355468-25.09375-13.457032 15.367187-33.199219 25.09375-55.179688 25.09375-40.457031 0-73.367188-32.910157-73.367188-73.367188s32.910157-73.367188 73.367188-73.367188c16.230469 0 31.242188 5.304688 43.40625 14.261719.386719-7.9375 6.925781-14.261719 14.960938-14.261719 8.285156 0 15 6.714844 15 15v70.566407c0 17.1875 13.984374 31.167969 31.167968 31.167969 15.835938 0 29.148438-11.8125 30.960938-27.476563.648437-5.59375.953125-11.304687.910156-16.980469-.582031-74.5625-61.730469-135.265625-136.308594-135.320312-.03125 0-.070312 0-.101562 0-36.4375 0-70.683594 14.1875-96.453125 39.957031-25.789063 25.789063-39.980469 60.082031-39.953125 96.558594.027344 36.089843 14.488281 70.300781 40.722656 96.328125 26.007812 25.804687 59.964844 39.976562 95.71875 39.976562.324219 0 .644531 0 .96875-.003906 20.390625-.144531 39.96875-4.675781 58.191406-13.464844 7.457032-3.597656 16.425782-.46875 20.027344 6.992188 3.597656 7.460937.464844 16.429687-6.996094 20.027344-22.253906 10.734374-46.144531 16.269531-71.007812 16.445312-.398438.003906-.796875.003906-1.191406.003906-43.71875 0-85.167969-17.257812-116.839844-48.679687-31.949219-31.699219-49.5625-73.464844-49.59375-117.605469-.03125-44.496094 17.277344-86.328125 48.738281-117.792969 31.4375-31.433593 73.21875-48.742187 117.667969-48.742187h.125c90.980468.066406 165.574218 74.121094 166.285156 165.085937.054688 6.902344-.320312 13.855469-1.109375 20.667969zm0 0"/><path d="m256 212.632812c-23.914062 0-43.367188 19.453126-43.367188 43.367188s19.453126 43.367188 43.367188 43.367188 43.367188-19.453126 43.367188-43.367188-19.453126-43.367188-43.367188-43.367188zm0 0"/></svg>