<?xml version="1.0" standalone="no"?>
<!DOCTYPE svg PUBLIC "-//W3C//DTD SVG 20010904//EN"
 "http://www.w3.org/TR/2001/REC-SVG-20010904/DTD/svg10.dtd">
<svg version="1.0" xmlns="http://www.w3.org/2000/svg"
 width="440.000000pt" height="440.000000pt" viewBox="0 0 440.000000 440.000000"
 preserveAspectRatio="xMidYMid meet">
<metadata>
Created by potrace 1.11, written by Peter Selinger 2001-2013
</metadata>
<g transform="translate(0.000000,440.000000) scale(0.100000,-0.100000)"
fill="#000000" stroke="none">
<path d="M1939 4396 c-2 -2 -26 -7 -53 -10 -82 -11 -287 -57 -326 -73 -8 -3
-19 -7 -25 -9 -114 -28 -510 -222 -523 -256 -2 -4 -8 -8 -13 -8 -6 0 -35 -19
-66 -42 -30 -24 -62 -47 -71 -53 -37 -25 -273 -253 -326 -315 -83 -98 -256
-361 -256 -389 0 -6 -5 -11 -10 -11 -6 0 -9 -3 -8 -7 1 -5 -15 -42 -35 -84
-45 -93 -99 -242 -128 -347 -19 -73 -23 -90 -33 -144 -2 -13 -7 -30 -10 -38
-5 -15 -8 -40 -23 -165 -10 -78 -10 -390 -1 -480 4 -39 17 -118 28 -175 28
-136 28 -138 35 -160 3 -10 8 -27 10 -37 4 -23 61 -186 83 -238 35 -84 117
-242 158 -307 24 -38 44 -71 44 -74 0 -2 4 -10 10 -17 5 -7 48 -61 96 -122
116 -149 291 -318 433 -420 31 -21 58 -43 59 -47 2 -5 8 -6 13 -2 5 3 9 0 9
-5 0 -6 4 -11 9 -11 6 0 30 -13 53 -29 115 -78 406 -206 534 -236 10 -2 37 -9
59 -15 85 -24 132 -32 306 -57 122 -18 452 -8 589 17 30 5 66 11 80 14 83 14
287 75 357 107 24 10 45 19 48 19 10 0 220 103 225 110 3 4 26 17 53 30 26 13
47 27 47 30 0 4 11 12 26 18 39 19 224 161 224 174 0 6 3 9 6 5 7 -7 181 165
250 248 141 169 262 370 347 575 31 77 91 256 102 306 2 10 10 51 18 89 34
159 42 244 42 450 0 206 -9 297 -47 475 -6 30 -12 57 -13 60 -1 3 -5 19 -9 35
-4 17 -17 59 -29 95 -12 36 -21 67 -22 70 0 5 -19 54 -43 110 -28 69 -116 246
-140 285 -122 194 -181 270 -332 426 -47 48 -119 116 -160 150 -82 68 -300
213 -367 244 -24 11 -43 23 -43 28 0 4 -7 7 -15 7 -8 0 -30 9 -50 20 -19 11
-38 20 -43 21 -7 2 -30 11 -87 34 -16 7 -55 20 -85 30 -30 9 -62 19 -70 22 -8
3 -20 7 -27 9 -6 1 -27 7 -45 13 -39 12 -57 16 -198 40 -82 15 -160 19 -361
20 -141 0 -258 -1 -260 -3z"/>
</g>
</svg>
