<svg xmlns="http://www.w3.org/2000/svg"
 xmlns:xlink="http://www.w3.org/1999/xlink"
 width="22px" height="23px"  viewBox="0 0 22 23">
<path fill-rule="evenodd"  fill="#b1b1b1"
 d="M19.726196,19.331604 C19.726196,19.331604 15.288818,14.621277 15.288818,14.621277 C16.42981,13.2369995 17.054932,11.495422 17.054932,9.682434 C17.054932,5.446106 13.6779785,1.9995117 9.527466,1.9995117 C5.376709,1.9995117 1.9998779,5.446106 1.9998779,9.682434 C1.9998779,13.918518 5.376709,17.365112 9.527466,17.365112 C11.085571,17.365112 12.570557,16.885437 13.840088,15.974915 C13.840088,15.974915 18.311035,20.720886 18.311035,20.720886 C18.497925,20.918762 18.749268,21.028198 19.018555,21.028198 C19.27356,21.028198 19.515503,20.928955 19.698975,20.748474 C20.089233,20.365356 20.101562,19.730042 19.726196,19.331604 ZM9.527466,4.003723 C12.595337,4.003723 15.091187,6.5512085 15.091187,9.682434 C15.091187,12.81366 12.595337,15.360901 9.527466,15.360901 C6.4594727,15.360901 3.963623,12.81366 3.963623,9.682434 C3.963623,6.5512085 6.4594727,4.003723 9.527466,4.003723 Z"/>
</svg>